# xmcd
#
# Track frame offsets: 
#        182
#        15322
#        30077
#        40770
#        57825
#        70240
#        83990
#        100400
#        119112
#        137005
#        146517
#        157790
#        171722
#        185317
#        198957
#        209472
#        219127
#        228755
#        240155
#        255092
#        266930
#
# Disc length: 3855 seconds
#
# Revision: 2
# Processed by: cddbd v1.5.2PL0 Copyright (c) Steve Scherf et al.
# Submitted via: ExactAudioCopy v1.3
#
DISCID=150f0d15
DTITLE=Flying Burrito Brothers - Out of the Blue [CD1)
DYEAR=1996
DGENRE=Country Rock
TTITLE0=Sing Me Back Home
TTITLE1=Hot Burrito #2
TTITLE2=Break My Mind
TTITLE3=Dark End Of The Street
TTITLE4=Cody Cody
TTITLE5=Wheels
TTITLE6=Hot Burrito #1
TTITLE7=Sin City
TTITLE8=Do Right Woman
TTITLE9=God's Own Singer
TTITLE10=Older Guys
TTITLE11=Train Song
TTITLE12=Lazy Days
TTITLE13=Christine's Tune
TTITLE14=Close Up The Honky Tonks
TTITLE15=Do You Know How It Feels
TTITLE16=High Fashion Queen
TTITLE17=Man In The Fog
TTITLE18=To Love Somebody
TTITLE19=My Uncle
TTITLE20=Hippie Boy
EXTD=
EXTT0=
EXTT1=
EXTT2=
EXTT3=
EXTT4=
EXTT5=
EXTT6=
EXTT7=
EXTT8=
EXTT9=
EXTT10=
EXTT11=
EXTT12=
EXTT13=
EXTT14=
EXTT15=
EXTT16=
EXTT17=
EXTT18=
EXTT19=
EXTT20=
PLAYORDER=
